# xmcd
#
# Track frame offsets:
# 150
# 13436
# 31425
# 46262
# 58462
# 76485
# 88322
# 98202
# 111091
# 126006
# 137440
# 152921
# 165931
# 180620
# 195767
# 210915
# 224690
# 239538
# 257327
# 268601
# 284387
# 301806
#
# Disc length: 4215 seconds
#
#
# Revision: 0
# Processed by: cddbd v1.5.2PL0 Copyright (c) Steve Scherf et al.
# Submitted via: FreeRIP 2.944 
#
DISCID=34107516
DTITLE=Vários - Forro e Frevo
DYEAR=1969
DGENRE=Country
TTITLE0=La no Xapuri
TTITLE1=Frevo Mulher
TTITLE2=Pisa na Fulo
TTITLE3=Fole da Sanfona
TTITLE4=Forro Numero Um
TTITLE5=Riacho do Navio
TTITLE6=Pagode Russo
TTITLE7=Homem com H
TTITLE8=Feira de Mangaio
TTITLE9=Baiao Frances
TTITLE10=Capim Guine
TTITLE11=Forro de Cabo a Rabo
TTITLE12=Candeeiro
TTITLE13=Lua Nova
TTITLE14=Assim nao Da
TTITLE15=Tava na Peneira
TTITLE16=Bate Coracao
TTITLE17=E de dar Agua na Boca
TTITLE18=Quero Ver o Poeirao
TTITLE19=Tililingo
TTITLE20=Banho de Cheiro
TTITLE21=Isso aqui Ta Muito Bom
EXTD=
EXTT0=
EXTT1=
EXTT2=
EXTT3=
EXTT4=
EXTT5=
EXTT6=
EXTT7=
EXTT8=
EXTT9=
EXTT10=
EXTT11=
EXTT12=
EXTT13=
EXTT14=
EXTT15=
EXTT16=
EXTT17=
EXTT18=
EXTT19=
EXTT20=
EXTT21=
PLAYORDER=
